HIERARCHY
ROOT Hips
{
	OFFSET -14.64140 90.27770 -84.91600
	CHANNELS 6 Xposition Yposition Zposition Zrotation Xrotation Yrotation
	JOINT Spine
	{
		OFFSET 0.00000 13.20850 -1.60436
		CHANNELS 3 Zrotation Xrotation Yrotation
		JOINT Spine1
		{
			OFFSET 0.00000 8.61716 0.00000
			CHANNELS 3 Zrotation Xrotation Yrotation
			JOINT Spine2
			{
				OFFSET 0.00000 8.61717 0.00000
				CHANNELS 3 Zrotation Xrotation Yrotation
				JOINT Spine3
				{
					OFFSET 0.00000 8.61717 0.00000
					CHANNELS 3 Zrotation Xrotation Yrotation
					JOINT Neck
					{
						OFFSET 0.00000 11.07920 1.10792
						CHANNELS 3 Zrotation Xrotation Yrotation
						JOINT Neck1
						{
							OFFSET 0.00000 7.08032 0.00000
							CHANNELS 3 Zrotation Xrotation Yrotation
							JOINT Head
							{
								OFFSET 0.00000 7.08031 0.00000
								CHANNELS 3 Zrotation Xrotation Yrotation
								End site
								{
									OFFSET 0.00000 0.00000 0.00000
								}
							}
						}
					}
					JOINT RightShoulder
					{
						OFFSET -0.01000 7.91373 5.19711
						CHANNELS 3 Zrotation Xrotation Yrotation
						JOINT RightArm
						{
							OFFSET -18.41580 0.00000 0.00000
							CHANNELS 3 Zrotation Xrotation Yrotation
							JOINT RightForeArm
							{
								OFFSET -29.11090 0.00000 0.00000
								CHANNELS 3 Zrotation Xrotation Yrotation
								JOINT RightHand
								{
									OFFSET -24.65040 0.00000 0.00000
									CHANNELS 3 Zrotation Xrotation Yrotation
									JOINT RightHandThumb1
									{
										OFFSET -5.35114 -0.85590 3.97906
										CHANNELS 3 Zrotation Xrotation Yrotation
										JOINT RightHandThumb2
										{
											OFFSET -4.52789 0.00000 0.00000
											CHANNELS 3 Zrotation Xrotation Yrotation
											JOINT RightHandThumb3
											{
												OFFSET -2.46976 0.00000 0.00000
												CHANNELS 3 Zrotation Xrotation Yrotation
												End site
												{
													OFFSET 0.00000 0.00000 0.00000
												}
											}
										}
									}
									JOINT RightHandIndex1
									{
										OFFSET -14.26970 0.00000 2.88139
										CHANNELS 3 Zrotation Xrotation Yrotation
										JOINT RightHandIndex2
										{
											OFFSET -5.48836 0.00000 0.00000
											CHANNELS 3 Zrotation Xrotation Yrotation
											JOINT RightHandIndex3
											{
												OFFSET -3.01859 0.00000 0.00000
												CHANNELS 3 Zrotation Xrotation Yrotation
												End site
												{
													OFFSET 0.00000 0.00000 0.00000
												}
											}
										}
									}
									JOINT RightHandMiddle1
									{
										OFFSET -14.26970 0.00000 -0.09147
										CHANNELS 3 Zrotation Xrotation Yrotation
										JOINT RightHandMiddle2
										{
											OFFSET -6.17441 0.00000 0.00000
											CHANNELS 3 Zrotation Xrotation Yrotation
											JOINT RightHandMiddle3
											{
												OFFSET -3.56743 0.00000 0.00000
												CHANNELS 3 Zrotation Xrotation Yrotation
												End site
												{
													OFFSET 0.00000 0.00000 0.00000
												}
											}
										}
									}
									JOINT RightHandRing1
									{
										OFFSET -12.69180 0.00000 -3.06433
										CHANNELS 3 Zrotation Xrotation Yrotation
										JOINT RightHandRing2
										{
											OFFSET -5.62556 0.00000 0.00000
											CHANNELS 3 Zrotation Xrotation Yrotation
											JOINT RightHandRing3
											{
												OFFSET -3.56744 0.00000 0.00000
												CHANNELS 3 Zrotation Xrotation Yrotation
												End site
												{
													OFFSET 0.00000 0.00000 0.00000
												}
											}
										}
									}
									JOINT RightHandPinky1
									{
										OFFSET -11.11390 0.00000 -6.03719
										CHANNELS 3 Zrotation Xrotation Yrotation
										JOINT RightHandPinky2
										{
											OFFSET -4.52789 0.00000 0.00000
											CHANNELS 3 Zrotation Xrotation Yrotation
											JOINT RightHandPinky3
											{
												OFFSET -2.46976 0.00000 0.00000
												CHANNELS 3 Zrotation Xrotation Yrotation
												End site
												{
													OFFSET 0.00000 0.00000 0.00000
												}
											}
										}
									}
								}
							}
						}
					}
					JOINT LeftShoulder
					{
						OFFSET 0.01000 7.91373 5.19711
						CHANNELS 3 Zrotation Xrotation Yrotation
						JOINT LeftArm
						{
							OFFSET 18.41580 0.00000 0.00000
							CHANNELS 3 Zrotation Xrotation Yrotation
							JOINT LeftForeArm
							{
								OFFSET 29.11090 0.00000 0.00000
								CHANNELS 3 Zrotation Xrotation Yrotation
								JOINT LeftHand
								{
									OFFSET 24.65040 0.00000 0.00000
									CHANNELS 3 Zrotation Xrotation Yrotation
									JOINT LeftHandThumb1
									{
										OFFSET 5.35114 -0.85590 3.97906
										CHANNELS 3 Zrotation Xrotation Yrotation
										JOINT LeftHandThumb2
										{
											OFFSET 4.52789 0.00000 0.00000
											CHANNELS 3 Zrotation Xrotation Yrotation
											JOINT LeftHandThumb3
											{
												OFFSET 2.46977 0.00000 0.00000
												CHANNELS 3 Zrotation Xrotation Yrotation
												End site
												{
													OFFSET 0.00000 0.00000 0.00000
												}
											}
										}
									}
									JOINT LeftHandIndex1
									{
										OFFSET 14.26970 0.00000 2.88139
										CHANNELS 3 Zrotation Xrotation Yrotation
										JOINT LeftHandIndex2
										{
											OFFSET 5.48836 0.00000 0.00000
											CHANNELS 3 Zrotation Xrotation Yrotation
											JOINT LeftHandIndex3
											{
												OFFSET 3.01859 0.00000 0.00000
												CHANNELS 3 Zrotation Xrotation Yrotation
												End site
												{
													OFFSET 0.00000 0.00000 0.00000
												}
											}
										}
									}
									JOINT LeftHandMiddle1
									{
										OFFSET 14.26970 0.00000 -0.09147
										CHANNELS 3 Zrotation Xrotation Yrotation
										JOINT LeftHandMiddle2
										{
											OFFSET 6.17440 0.00000 0.00000
											CHANNELS 3 Zrotation Xrotation Yrotation
											JOINT LeftHandMiddle3
											{
												OFFSET 3.56744 0.00000 0.00000
												CHANNELS 3 Zrotation Xrotation Yrotation
												End site
												{
													OFFSET 0.00000 0.00000 0.00000
												}
											}
										}
									}
									JOINT LeftHandRing1
									{
										OFFSET 12.69180 0.00000 -3.06433
										CHANNELS 3 Zrotation Xrotation Yrotation
										JOINT LeftHandRing2
										{
											OFFSET 5.62556 0.00000 0.00000
											CHANNELS 3 Zrotation Xrotation Yrotation
											JOINT LeftHandRing3
											{
												OFFSET 3.56744 0.00000 0.00000
												CHANNELS 3 Zrotation Xrotation Yrotation
												End site
												{
													OFFSET 0.00000 0.00000 0.00000
												}
											}
										}
									}
									JOINT LeftHandPinky1
									{
										OFFSET 11.11390 0.00000 -6.03719
										CHANNELS 3 Zrotation Xrotation Yrotation
										JOINT LeftHandPinky2
										{
											OFFSET 4.52789 0.00000 0.00000
											CHANNELS 3 Zrotation Xrotation Yrotation
											JOINT LeftHandPinky3
											{
												OFFSET 2.46976 0.00000 0.00000
												CHANNELS 3 Zrotation Xrotation Yrotation
												End site
												{
													OFFSET 0.00000 0.00000 0.00000
												}
											}
										}
									}
								}
							}
						}
					}
					JOINT pCube4
					{
						OFFSET 0.00000 10.91090 1.10792
						CHANNELS 3 Zrotation Xrotation Yrotation
						End site
						{
							OFFSET 0.00000 0.00000 0.00000
						}
					}
				}
			}
		}
	}
	JOINT RightUpLeg
	{
		OFFSET -9.98441 0.00000 0.00000
		CHANNELS 3 Zrotation Xrotation Yrotation
		JOINT RightLeg
		{
			OFFSET 0.00000 -42.11790 0.00000
			CHANNELS 3 Zrotation Xrotation Yrotation
			JOINT RightFoot
			{
				OFFSET 0.00000 -45.00020 -0.00001
				CHANNELS 3 Zrotation Xrotation Yrotation
				JOINT RightForeFoot
				{
					OFFSET 0.00000 -3.74820 0.00000
					CHANNELS 3 Zrotation Xrotation Yrotation
					JOINT RightToeBase
					{
						OFFSET 0.00000 0.06325 14.43120
						CHANNELS 3 Zrotation Xrotation Yrotation
						End site
						{
							OFFSET 0.00000 0.00000 0.00000
						}
					}
				}
			}
		}
	}
	JOINT LeftUpLeg
	{
		OFFSET 9.98441 0.00000 0.00000
		CHANNELS 3 Zrotation Xrotation Yrotation
		JOINT LeftLeg
		{
			OFFSET 0.00000 -42.11800 0.00000
			CHANNELS 3 Zrotation Xrotation Yrotation
			JOINT LeftFoot
			{
				OFFSET 0.00000 -45.00070 0.00000
				CHANNELS 3 Zrotation Xrotation Yrotation
				JOINT LeftForeFoot
				{
					OFFSET 0.00000 -3.74824 0.00000
					CHANNELS 3 Zrotation Xrotation Yrotation
					JOINT LeftToeBase
					{
						OFFSET 0.00000 0.06325 14.43110
						CHANNELS 3 Zrotation Xrotation Yrotation
						End site
						{
							OFFSET 0.00000 0.00000 0.00000
						}
					}
				}
			}
		}
	}
}
MOTION
Frames: 4
Frame Time: 0.050000
-0.045599542607231563 0.0353169400811548 0.031249490035167457 0.03570574205735916 -0.028515202018375742 0.018826781914395185 4.897183784108021 2.892201720919533 -2.2164419483062874 -0.6774247008878984 3.7624857291633877 0.2979742969850521 -0.6630847267359904 -1.6578305309005288 0.5791000367047698 -0.40191690038430977 -0.6199060700479384 -0.3141115177313244 0.12589231624255137 16.627488463418363 -2.9965884347396776 0.3383945115970235 -0.7237957624365581 -6.148163635551836 1.2513629611916848 -18.22100468544182 -0.6153995327117532 -13.936942766468356 4.27413677080958 -17.91064801950507 82.53562605571601 -11.219882329245925 32.12633215237528 23.88235449305468 10.685866732295327 107.39918234342528 9.306192253892233 -0.2713427157889026 -0.1556430071312077 4.499288971874997 -0.0872848289056081 -1.5759503653868112 -0.02257734054508012 0.029823422937527606 -56.23739641209524 0.005638719850538695 -0.0014512308997866373 -56.22109593557168 -38.75784698044471 -0.03930734725953329 0.010489432409873859 0.014220189791211195 0.040249519063821376 -0.010759432566208444 0.028297307578534235 0.013985819409015058 -0.032696297399687484 -36.64383986601779 -0.01472466938070334 0.028006963128271525 0.024781884001158126 -0.041092346293746376 0.006416894988609807 0.01908818116121219 -0.018727065565024008 -0.010683282070918381 -19.745549537341837 -0.03189859992055482 -0.03072859750574503 0.021098890242202226 -0.00987837607168303 -0.012373765910730942 0.026616659102043905 0.0243453903666833 -0.021382386523622624 24.100058355992452 -0.04658469155433592 -0.017517666762984455 28.88438165166744 -0.02721118636758805 0.01744741990446441 28.904264290963127 0.024892723964958157 0.027878242323323085 14.689482409055765 3.269908034623486 14.990633753360447 -77.70937145178543 1.2600518407577512 -37.30230769194704 -34.885724053521756 16.200893201702247 -108.2205055145807 -12.852086485269515 3.813112263376234 -6.181288553143187 -0.43654071250939275 0.09264566985604697 -8.080138736743187 0.029165082571213582 0.0003158050983022867 44.58817795788185 0.04019222864308546 -0.01806119834765527 44.53827537573911 12.50929485835025 -0.0044839423100432926 -0.00196825625988231 -0.015476838005545548 -0.037818981509354775 0.025486184363251233 0.004543652005662831 -0.04228882658249437 0.01923539316321193 11.103522948385812 -0.023267874633197124 0.02848044390651868 0.006050420162200254 0.02973680959100717 -0.021216835418252502 0.03066398333414729 -0.01993707451943392 0.03285661899362638 4.733918470064009 -0.03444663732061734 -0.007778842751393735 -0.041514726418707 0.012004768056566424 0.022526321189668047 0.028841434569582075 0.046831572228984875 0.005857751240762753 -5.5903216386225685 0.038128026323990136 0.035881729336912666 -6.692262398846152 0.010390674591883042 0.01931233720956791 -6.7632883828931005 0.02336901758774019 -0.01230056159519331 -0.02663623150433402 0.017352054420271813 -0.0007464661430414682 8.028810326302077 3.4635230065058837 -19.204027459924106 0.0025775555831659986 10.443205037157094 0.006900209603741492 -5.654088105333129 -15.683579641535166 3.2066756516992094 -0.011152341849004505 0.00010575365209920051 -0.022230205917339943 -0.0008034472076995533 4.72697780860158 -0.0036507017519652346 12.436175297429783 -8.239004967320653 6.8610903531198275 0.03341380920703581 46.42541989939693 -0.008398555933823633 -4.342536174638011 -14.782906023147797 -3.8130463652151017 0.037117102410923385 0.03386194937022254 -0.028233363049695336 0.011165006256964736 -10.746967264323871 0.013404191928366494 
-0.019379717232092905 0.014320710066210222 0.005062048120674841 -0.018746220156738214 -0.006355313800212097 -0.02981685015809384 4.997088433271745 2.9907944014786874 -2.1938077172705155 -0.7011727239265791 3.7998692079217986 0.35424444239923014 -0.6071532275095473 -1.5893151649601756 0.4372806427186233 -0.3474421555553217 -0.49849473627300867 -0.3371183169323988 0.11807227519703686 16.480832896042635 -2.94205636329321 0.3170701172763324 -0.6428318983165995 -5.860358895921589 1.1972033078339106 -18.227392254765597 -0.5356952633776836 -14.05892269294368 4.3377805966189396 -17.967264840466626 83.63948381658228 -10.601321240422951 31.016256280436675 26.600307471828295 10.841414568910158 106.70157215371957 9.214366715191339 -0.2527749001474283 -0.5040916956901494 4.483461756815463 -0.09903462942022451 -1.5539836407056058 -0.013712866270183385 -0.015739646972590154 -56.28072722271995 -0.036961614159291986 -0.042129059262021804 -56.21426599588362 -38.74110678545407 0.04892183317091005 -0.02902059348783643 -0.0020340583796509236 0.03713542946811413 0.0042412088995025694 -0.03792849858789289 -0.022588459938747942 0.0315263976549256 -36.697540539291246 0.03492664830491161 -0.02880362286965791 -0.02423852371003498 0.028641083337728 0.030556809016044868 -0.006307238030778699 0.0485373944834619 -0.01488507949623153 -19.800723743918347 0.022190877064594328 0.021676376951752233 -0.010469849922451422 -0.04455053621179027 -0.026527796784105 -0.009274274483867929 0.046364485955230274 -0.006508546854835561 24.025223151427053 0.02824833698515848 -0.041186478052890205 28.901170266399188 -0.03168152649646067 -0.04415504094030775 28.850215486906993 -0.04310022785004074 -0.016309013183092032 14.999188925443535 3.285341630369355 15.014172610145453 -78.27953651392964 0.05392613674903453 -37.500752885400715 -41.142009156584336 16.7494241974008 -109.44828187593993 -12.13683854616608 3.2065215657810087 -5.176543690165033 -0.43609054366745725 0.03673853202555567 -8.148877117855998 -0.0168212813214884 -0.008676442628875031 44.617343341846734 0.001328621729895841 0.009050056628892064 44.53626607363205 12.498741190503848 0.028355718874850486 0.029299882864923705 0.024225559128512156 0.043626152862390515 0.006926619232069806 0.03237022603729006 -0.014576542895697117 -0.009144110010146008 11.133260731745782 -0.014994249492683279 0.019345162374327932 0.03608414362368515 -0.022924337335204315 0.016143204517389206 -0.004299589535479392 -0.010333595854356972 -0.04476331592272116 4.820977280029597 0.03831383176398526 0.037986546882045204 0.031930954272711524 0.04002539065894592 -0.0049051995423871194 -0.018228782392024512 -0.023773572247985018 0.03653659190061645 -5.561435779227055 0.03082224241460038 0.024570235632208635 -6.738506379275694 0.02834367334744367 -0.03527522091848705 -6.68487006809066 -0.030087749753156545 -0.018942078972467826 0.007452296570142456 0.04201455209211194 -0.015307236272763402 8.082391109300964 3.4905088996527818 -19.18262124144778 0.03678515205393876 10.35584398087722 0.03842406474886553 -5.6359005048185375 -15.663806077447513 3.222609790123476 -0.012006402009625838 0.01520266726620153 -0.024749319878382494 0.02702672181361538 4.722720415943677 0.03325321378283354 12.42974670933324 -8.213853488708786 6.869449669120572 -0.0012224726667932307 46.42904439980258 -0.008120470543608455 -4.345583273003315 -14.789698044718431 -3.859671065044199 0.039795030934519596 0.010423320041840642 0.0417146465392714 -0.04614077334162236 -10.775520747221806 0.0003906899767783787 
-0.03529620171353592 0.02441449782379425 -0.01976743082860828 -0.011054941682306741 -0.019362372727618066 -0.03820491428607058 5.020638355305008 2.9857274638080615 -2.245077557834862 -0.6459123762044883 3.762119328944429 0.37834194834560025 -0.6655271136192492 -1.6359831025604847 0.3632255577307979 -0.38797950415351545 -0.5080194307974042 -0.30172555525263434 0.08412629398435897 16.352914541890073 -2.903904667645604 0.293600703173101 -0.7164040508593628 -5.797136564427816 1.1870437554458053 -18.32716133452436 -0.5765387043053637 -14.37508975651469 4.353321171858767 -18.03255708202691 84.6698650659616 -10.886322564601928 30.61139118942861 28.30292328523215 10.449170657822284 105.70723911394822 9.279037919432465 -0.21952670419310788 -0.9202138536484842 4.540203951916671 -0.17580967208123144 -1.635539419299028 -0.013850595715242569 -0.02676079367219264 -56.2202788263539 0.01884550903155882 -0.011508755519216445 -56.23839382534558 -38.784200742140335 -0.0465557675935178 -0.010678754327971307 -0.02866257812127858 0.0005693718287363426 0.04467438458536164 -0.031871915992476574 0.02751884076539316 -0.021639892479749612 -36.679231511528144 -0.012799275026222513 -0.028677653616412963 0.004862288096609615 0.024249908002742133 -0.033784571968108516 -0.0038992456398393703 0.0223852903134635 0.005065147462152974 -19.72359941870685 0.012862137568703106 0.049179431892793654 0.018576507057866936 0.03756430758103023 -0.02752535805570769 0.020533148750579565 0.0291803412969817 -0.013385410982027928 24.052284858149417 0.004033378304788451 -0.0025873671024965648 28.892253230804243 -0.017428572404152187 0.035206146280099694 28.822096138012196 -0.006183236298423373 0.025544747211542793 15.273347693879707 3.3199711736461004 15.026403099644066 -78.67776806803259 -0.8455214975195936 -36.779284940945004 -46.076965422166545 16.514009366598067 -109.91671861837689 -11.548579080076328 2.6535731685252872 -4.298235089849044 -0.47849060922187037 0.09096355552485452 -8.133092624620618 0.003133873982795244 0.002287206242020246 44.584367731484136 -0.034958940660208035 0.027490747723242538 44.54384369463903 12.426708032899265 -0.04667895556988065 -0.005162080621145501 -0.026004445538934898 0.016271496225917923 -0.00390877791829258 -0.024806421492485627 -0.020442623919160595 0.021546318804271457 11.12180094497739 0.004451062359548929 -0.010174509906815931 0.02976223618040227 -0.026285326865574984 -0.0408483144039805 -0.0027854092448788923 0.011788442083925847 0.037737760788310516 4.805920572947274 -0.018538755891909068 -0.04561734947356761 0.009508575183758092 0.0071018702805274335 -0.015444645817820476 -0.013782344283015495 0.02847096735832746 -0.009093635887402461 -5.582586787083945 0.038085317321469705 0.035778253812307696 -6.681425910175729 -0.0026478972114381627 0.041888544479215355 -6.695279238582262 -0.04301714597563173 -0.024945421942173054 0.028189206498901727 0.02518353164039739 0.04288302955835953 8.048241694376278 3.501553930464207 -19.17462094552987 -0.0007696169527952867 10.372537573090234 0.05338413351037774 -5.636288048377467 -15.624794796139161 3.2105233683396603 -0.03456336056562796 0.002533044649590163 0.023727421684585893 0.02533973733701512 4.709343776584305 0.03780965255235496 12.454070400957495 -8.237666713374374 6.874288954711496 -0.00822975124188832 46.371928521256855 0.0014508216033137693 -4.3126859476054005 -14.759200188317644 -3.830552299266505 0.03468007655203752 0.04357800805127948 -0.00593876496418762 -0.02088759216551792 -10.777936727027319 0.03444989784834211 
0.003436598580896632 0.01247035279376949 0.007898980654660935 -0.03000813352763276 -0.01044453790137716 -0.028488899037884652 4.873009775588425 3.1135912138555812 -2.2373880483488504 -0.6863184266620197 3.689438454484913 0.3235694552368013 -0.6363825677059963 -1.5527646857451152 0.30811811977850523 -0.44015407205945317 -0.4180001621873 -0.3050757119351456 0.09474373369930025 16.01937942043321 -2.8788072485499483 0.27828321689204655 -0.7206549393552976 -5.90282864295032 1.2167687162055112 -18.378519716489826 -0.5683609434899675 -14.345359659127915 4.364763989687617 -17.877084216993477 85.69671915219405 -10.768069330835827 30.174064686357113 29.21977594563309 9.919676795785014 104.9206574624758 9.335557988409986 -0.31672139787314574 -1.4095543103485646 4.512362995176486 -0.13406765121794123 -1.5935468550595315 0.009059370791848402 -0.02812888968776128 -56.23959007079618 -0.02177506214527754 -0.002582630164497112 -56.26058591940016 -38.76237222756273 0.03352267968974357 -0.005963612901572806 -0.003503473084237375 0.0337419640242836 0.016341457701654728 0.000222609268608585 -0.02954480765007138 0.03601335973015309 -36.71279461401029 0.012301740375754065 0.0474864164104278 -0.0109196755891814 0.006264184546150586 -0.010133726084695465 0.018995893184305515 -0.034821860114471734 -0.013960646372503901 -19.748855219600223 -0.004355952046096085 -0.003138394621153213 0.04267279064588629 0.0030549287879043227 0.037799061648586776 0.028651613712177088 -0.014016210108320814 -0.004609730052788565 24.053191485327932 -0.005472507096169719 -0.025197052668630725 28.853858445457448 0.023971734843238193 -0.04364749094586298 28.86722746030257 -0.041417809275743775 0.04668984960203518 15.152652964761833 3.2788705969262106 14.843196663686422 -79.16338283519727 -1.2537973962175235 -35.71057357972831 -50.27656047221771 15.884576543206336 -110.08133033247603 -10.861957177947602 2.0916682307779184 -3.336386420884705 -0.4669347469566108 0.11084913289384786 -8.092189067471672 -0.002664257553789081 -0.010557938106508012 44.54837677234089 0.010333626779696426 -0.04751271738478963 44.551889904708055 12.494758874769293 0.034683285486538595 -0.019317199332984845 -0.011111929842570822 0.042630061220587295 -0.028718914873863407 0.020317349820444055 -0.008789475819748111 0.005759898267573727 11.153160338284453 -0.006767571743117899 0.04595688033120348 -0.025290600501511804 -0.046361196257170625 0.027700313191142023 -0.007927474201009059 -0.003608040302460128 0.03196039233911703 4.766643050550582 -0.03296785010890187 0.006201677551143304 0.04222657751019983 0.00020786817277036523 0.0471144900801319 0.018888475339897688 -0.008864349192767471 -0.020111523065730566 -5.6057304074853755 -0.00885888546008522 0.03508600855158349 -6.736549104414499 -0.02609474236227877 0.011398697354687964 -6.698340291970113 -0.042257836676996306 -0.007602701092793501 0.02267614321825927 -0.035889397672351275 0.04353909455799044 8.010554857684005 3.5133583237135477 -19.235117059481592 0.00031835592262990475 10.39200957102074 0.05725924808009196 -5.6008825424325925 -15.62873381786429 3.145660349870554 0.017351899182209224 -0.015895966705773642 -0.02718142408851326 0.04178018228800785 4.685519840262253 -0.02585776305627199 12.479258368786999 -8.268139433516753 6.853612984186025 0.01822450067363404 46.37829180364493 -0.010444017424640684 -4.298366104523669 -14.745169048071462 -3.8708435314481595 0.024052640899885364 0.03846584496777601 -0.044680212521638625 -0.020296488849079555 -10.74957131610488 -0.033669556717890785 
